<svg width="800" height="500" xmlns="http://www.w3.org/2000/svg" xmlns:xlink="http://www.w3.org/1999/xlink" version="1.1" baseProfile="full" viewBox="0 0 800 500">
<rect width="800" height="500" x="0" y="0" fill="#ffffff"></rect>
<path d="M240.5 160L240.5 340" fill="transparent" stroke="#E0E6F1" class="zr5-cls-1544"></path>
<path d="M293.5 160L293.5 340" fill="transparent" stroke="#E0E6F1" class="zr5-cls-1544"></path>
<path d="M346.5 160L346.5 340" fill="transparent" stroke="#E0E6F1" class="zr5-cls-1544"></path>
<path d="M400.5 160L400.5 340" fill="transparent" stroke="#E0E6F1" class="zr5-cls-1544"></path>
<path d="M453.5 160L453.5 340" fill="transparent" stroke="#E0E6F1" class="zr5-cls-1544"></path>
<path d="M506.5 160L506.5 340" fill="transparent" stroke="#E0E6F1" class="zr5-cls-1544"></path>
<path d="M560.5 160L560.5 340" fill="transparent" stroke="#E0E6F1" class="zr5-cls-1544"></path>
<path d="M240.5 340L240.5 160" fill="transparent" stroke="#6E7079" stroke-linecap="round" class="zr5-cls-1544"></path>
<path d="M240 340.5L235 340.5" fill="transparent" stroke="#6E7079" class="zr5-cls-1544"></path>
<path d="M240 304.5L235 304.5" fill="transparent" stroke="#6E7079" class="zr5-cls-1544"></path>
<path d="M240 268.5L235 268.5" fill="transparent" stroke="#6E7079" class="zr5-cls-1544"></path>
<path d="M240 232.5L235 232.5" fill="transparent" stroke="#6E7079" class="zr5-cls-1544"></path>
<path d="M240 196.5L235 196.5" fill="transparent" stroke="#6E7079" class="zr5-cls-1544"></path>
<path d="M240 160.5L235 160.5" fill="transparent" stroke="#6E7079" class="zr5-cls-1544"></path>
<text dominant-baseline="central" text-anchor="end" style="font-size:12px;font-family:sans-serif;" xml:space="preserve" transform="translate(232 322)" fill="#6E7079">First Past the Post</text>
<text dominant-baseline="central" text-anchor="end" style="font-size:12px;font-family:sans-serif;" transform="translate(232 286)" fill="#6E7079">Anti-Plurality</text>
<text dominant-baseline="central" text-anchor="end" style="font-size:12px;font-family:sans-serif;" xml:space="preserve" transform="translate(232 250)" fill="#6E7079">Instant Runoff</text>
<text dominant-baseline="central" text-anchor="end" style="font-size:12px;font-family:sans-serif;" xml:space="preserve" transform="translate(232 214)" fill="#6E7079">Ranked Pairs</text>
<text dominant-baseline="central" text-anchor="end" style="font-size:12px;font-family:sans-serif;" transform="translate(232 178)" fill="#6E7079">Proportional</text>
<text dominant-baseline="central" text-anchor="middle" style="font-size:12px;font-family:sans-serif;" y="6" transform="translate(240 348)" fill="#6E7079">0</text>
<text dominant-baseline="central" text-anchor="middle" style="font-size:12px;font-family:sans-serif;" y="6" transform="translate(293.3333 348)" fill="#6E7079">30</text>
<text dominant-baseline="central" text-anchor="middle" style="font-size:12px;font-family:sans-serif;" y="6" transform="translate(346.6667 348)" fill="#6E7079">60</text>
<text dominant-baseline="central" text-anchor="middle" style="font-size:12px;font-family:sans-serif;" y="6" transform="translate(400 348)" fill="#6E7079">90</text>
<text dominant-baseline="central" text-anchor="middle" style="font-size:12px;font-family:sans-serif;" y="6" transform="translate(453.3333 348)" fill="#6E7079">120</text>
<text dominant-baseline="central" text-anchor="middle" style="font-size:12px;font-family:sans-serif;" y="6" transform="translate(506.6667 348)" fill="#6E7079">150</text>
<text dominant-baseline="central" text-anchor="middle" style="font-size:12px;font-family:sans-serif;" y="6" transform="translate(560 348)" fill="#6E7079">180</text>
<path d="M240 307.6l3.6 0l0 28.8l-3.6 0Z" fill="#FF3030" ecmeta_series_index="0" ecmeta_data_index="0" ecmeta_ssr_type="chart" class="zr5-cls-1545"></path>
<path d="M240 271.6l0 0l0 28.8l0 0Z" fill="#FF3030" ecmeta_series_index="0" ecmeta_data_index="1" ecmeta_ssr_type="chart" class="zr5-cls-1545"></path>
<path d="M240 235.6l1.8 0l0 28.8l-1.8 0Z" fill="#FF3030" ecmeta_series_index="0" ecmeta_data_index="2" ecmeta_ssr_type="chart" class="zr5-cls-1545"></path>
<path d="M240 199.6l1.8 0l0 28.8l-1.8 0Z" fill="#FF3030" ecmeta_series_index="0" ecmeta_data_index="3" ecmeta_ssr_type="chart" class="zr5-cls-1545"></path>
<path d="M240 163.6l42.7 0l0 28.8l-42.7 0Z" fill="#FF3030" ecmeta_series_index="0" ecmeta_data_index="4" ecmeta_ssr_type="chart" class="zr5-cls-1545"></path>
<path d="M244.1 308.1l171.4 0l0 27.8l-171.4 0Z" fill="#FF9900" stroke="#000000" ecmeta_series_index="1" ecmeta_data_index="0" ecmeta_ssr_type="chart" class="zr5-cls-1546"></path>
<path d="M240.5 272.1l267.4 0l0 27.8l-267.4 0Z" fill="#FF9900" stroke="#000000" ecmeta_series_index="1" ecmeta_data_index="1" ecmeta_ssr_type="chart" class="zr5-cls-1546"></path>
<path d="M242.3 236.1l175 0l0 27.8l-175 0Z" fill="#FF9900" stroke="#FF0000" ecmeta_series_index="1" ecmeta_data_index="2" ecmeta_ssr_type="chart" class="zr5-cls-1546"></path>
<path d="M242.3 200.1l123.4 0l0 27.8l-123.4 0Z" fill="#FF9900" stroke="#000000" ecmeta_series_index="1" ecmeta_data_index="3" ecmeta_ssr_type="chart" class="zr5-cls-1546"></path>
<path d="M283.2 164.1l82.6 0l0 27.8l-82.6 0Z" fill="#FF9900" stroke="#000000" ecmeta_series_index="1" ecmeta_data_index="4" ecmeta_ssr_type="chart" class="zr5-cls-1546"></path>
<path d="M416 307.6l0 0l0 28.8l0 0Z" fill="#FFFF33" ecmeta_series_index="2" ecmeta_data_index="0" ecmeta_ssr_type="chart" class="zr5-cls-1547"></path>
<path d="M508.4 271.6l0 0l0 28.8l0 0Z" fill="#FFFF33" ecmeta_series_index="2" ecmeta_data_index="1" ecmeta_ssr_type="chart" class="zr5-cls-1547"></path>
<path d="M417.8 235.6l0 0l0 28.8l0 0Z" fill="#FFFF33" ecmeta_series_index="2" ecmeta_data_index="2" ecmeta_ssr_type="chart" class="zr5-cls-1547"></path>
<path d="M366.2 199.6l32 0l0 28.8l-32 0Z" fill="#FFFF33" ecmeta_series_index="2" ecmeta_data_index="3" ecmeta_ssr_type="chart" class="zr5-cls-1547"></path>
<path d="M366.2 163.6l23.1 0l0 28.8l-23.1 0Z" fill="#FFFF33" ecmeta_series_index="2" ecmeta_data_index="4" ecmeta_ssr_type="chart" class="zr5-cls-1547"></path>
<path d="M416 307.6l0 0l0 28.8l0 0Z" fill="#33CC33" ecmeta_series_index="3" ecmeta_data_index="0" ecmeta_ssr_type="chart" class="zr5-cls-1548"></path>
<path d="M508.4 271.6l0 0l0 28.8l0 0Z" fill="#33CC33" ecmeta_series_index="3" ecmeta_data_index="1" ecmeta_ssr_type="chart" class="zr5-cls-1548"></path>
<path d="M417.8 235.6l0 0l0 28.8l0 0Z" fill="#33CC33" ecmeta_series_index="3" ecmeta_data_index="2" ecmeta_ssr_type="chart" class="zr5-cls-1548"></path>
<path d="M398.2 199.6l37.3 0l0 28.8l-37.3 0Z" fill="#33CC33" ecmeta_series_index="3" ecmeta_data_index="3" ecmeta_ssr_type="chart" class="zr5-cls-1548"></path>
<path d="M389.3 163.6l30.2 0l0 28.8l-30.2 0Z" fill="#33CC33" ecmeta_series_index="3" ecmeta_data_index="4" ecmeta_ssr_type="chart" class="zr5-cls-1548"></path>
<path d="M416 307.6l0 0l0 28.8l0 0Z" fill="#00CCCC" ecmeta_series_index="4" ecmeta_data_index="0" ecmeta_ssr_type="chart" class="zr5-cls-1549"></path>
<path d="M508.4 271.6l0 0l0 28.8l0 0Z" fill="#00CCCC" ecmeta_series_index="4" ecmeta_data_index="1" ecmeta_ssr_type="chart" class="zr5-cls-1549"></path>
<path d="M417.8 235.6l10.7 0l0 28.8l-10.7 0Z" fill="#00CCCC" ecmeta_series_index="4" ecmeta_data_index="2" ecmeta_ssr_type="chart" class="zr5-cls-1549"></path>
<path d="M435.6 199.6l40.9 0l0 28.8l-40.9 0Z" fill="#00CCCC" ecmeta_series_index="4" ecmeta_data_index="3" ecmeta_ssr_type="chart" class="zr5-cls-1549"></path>
<path d="M419.6 163.6l30.2 0l0 28.8l-30.2 0Z" fill="#00CCCC" ecmeta_series_index="4" ecmeta_data_index="4" ecmeta_ssr_type="chart" class="zr5-cls-1549"></path>
<path d="M416 307.6l92.4 0l0 28.8l-92.4 0Z" fill="#3399FF" ecmeta_series_index="5" ecmeta_data_index="0" ecmeta_ssr_type="chart" class="zr5-cls-1550"></path>
<path d="M508.4 271.6l0 0l0 28.8l0 0Z" fill="#3399FF" ecmeta_series_index="5" ecmeta_data_index="1" ecmeta_ssr_type="chart" class="zr5-cls-1550"></path>
<path d="M428.4 235.6l80 0l0 28.8l-80 0Z" fill="#3399FF" ecmeta_series_index="5" ecmeta_data_index="2" ecmeta_ssr_type="chart" class="zr5-cls-1550"></path>
<path d="M476.4 199.6l32 0l0 28.8l-32 0Z" fill="#3399FF" ecmeta_series_index="5" ecmeta_data_index="3" ecmeta_ssr_type="chart" class="zr5-cls-1550"></path>
<path d="M449.8 163.6l58.7 0l0 28.8l-58.7 0Z" fill="#3399FF" ecmeta_series_index="5" ecmeta_data_index="4" ecmeta_ssr_type="chart" class="zr5-cls-1550"></path>
<text dominant-baseline="central" text-anchor="middle" style="font-size:12px;font-family:sans-serif;" transform="translate(241.7778 322)" fill="#eee" stroke="#FF3030" stroke-width="2" paint-order="stroke" stroke-miterlimit="2">2</text>
<text dominant-baseline="central" text-anchor="middle" style="font-size:12px;font-family:sans-serif;" transform="translate(240 286)" fill="#eee" stroke="#FF3030" stroke-width="2" paint-order="stroke" stroke-miterlimit="2">0</text>
<text dominant-baseline="central" text-anchor="middle" style="font-size:12px;font-family:sans-serif;" transform="translate(240.8889 250)" fill="#eee" stroke="#FF3030" stroke-width="2" paint-order="stroke" stroke-miterlimit="2">1</text>
<text dominant-baseline="central" text-anchor="middle" style="font-size:12px;font-family:sans-serif;" transform="translate(240.8889 214)" fill="#eee" stroke="#FF3030" stroke-width="2" paint-order="stroke" stroke-miterlimit="2">1</text>
<text dominant-baseline="central" text-anchor="middle" style="font-size:12px;font-family:sans-serif;" transform="translate(261.3333 178)" fill="#eee" stroke="#FF3030" stroke-width="2" paint-order="stroke" stroke-miterlimit="2">24</text>
<text dominant-baseline="central" text-anchor="middle" style="font-size:12px;font-family:sans-serif;" transform="translate(329.7778 322)" fill="#333">97</text>
<text dominant-baseline="central" text-anchor="middle" style="font-size:12px;font-family:sans-serif;" transform="translate(374.2222 286)" fill="#333">151</text>
<text dominant-baseline="central" text-anchor="middle" style="font-size:12px;font-family:sans-serif;" transform="translate(329.7778 250)" fill="#333">99</text>
<text dominant-baseline="central" text-anchor="middle" style="font-size:12px;font-family:sans-serif;" transform="translate(304 214)" fill="#333">70</text>
<text dominant-baseline="central" text-anchor="middle" style="font-size:12px;font-family:sans-serif;" transform="translate(324.4444 178)" fill="#333">47</text>
<text dominant-baseline="central" text-anchor="middle" style="font-size:12px;font-family:sans-serif;" transform="translate(416 322)" fill="#333">0</text>
<text dominant-baseline="central" text-anchor="middle" style="font-size:12px;font-family:sans-serif;" transform="translate(508.4444 286)" fill="#333">0</text>
<text dominant-baseline="central" text-anchor="middle" style="font-size:12px;font-family:sans-serif;" transform="translate(417.7778 250)" fill="#333">0</text>
<text dominant-baseline="central" text-anchor="middle" style="font-size:12px;font-family:sans-serif;" transform="translate(382.2222 214)" fill="#333">18</text>
<text dominant-baseline="central" text-anchor="middle" style="font-size:12px;font-family:sans-serif;" transform="translate(377.7778 178)" fill="#333">13</text>
<text dominant-baseline="central" text-anchor="middle" style="font-size:12px;font-family:sans-serif;" transform="translate(416 322)" fill="#333">0</text>
<text dominant-baseline="central" text-anchor="middle" style="font-size:12px;font-family:sans-serif;" transform="translate(508.4444 286)" fill="#333">0</text>
<text dominant-baseline="central" text-anchor="middle" style="font-size:12px;font-family:sans-serif;" transform="translate(417.7778 250)" fill="#333">0</text>
<text dominant-baseline="central" text-anchor="middle" style="font-size:12px;font-family:sans-serif;" transform="translate(416.8889 214)" fill="#333">21</text>
<text dominant-baseline="central" text-anchor="middle" style="font-size:12px;font-family:sans-serif;" transform="translate(404.4444 178)" fill="#333">17</text>
<text dominant-baseline="central" text-anchor="middle" style="font-size:12px;font-family:sans-serif;" transform="translate(416 322)" fill="#333">0</text>
<text dominant-baseline="central" text-anchor="middle" style="font-size:12px;font-family:sans-serif;" transform="translate(508.4444 286)" fill="#333">0</text>
<text dominant-baseline="central" text-anchor="middle" style="font-size:12px;font-family:sans-serif;" transform="translate(423.1111 250)" fill="#333">6</text>
<text dominant-baseline="central" text-anchor="middle" style="font-size:12px;font-family:sans-serif;" transform="translate(456 214)" fill="#333">23</text>
<text dominant-baseline="central" text-anchor="middle" style="font-size:12px;font-family:sans-serif;" transform="translate(434.6667 178)" fill="#333">17</text>
<text dominant-baseline="central" text-anchor="middle" style="font-size:12px;font-family:sans-serif;" transform="translate(462.2222 322)" fill="#333">52</text>
<text dominant-baseline="central" text-anchor="middle" style="font-size:12px;font-family:sans-serif;" transform="translate(508.4444 286)" fill="#333">0</text>
<text dominant-baseline="central" text-anchor="middle" style="font-size:12px;font-family:sans-serif;" transform="translate(468.4444 250)" fill="#333">45</text>
<text dominant-baseline="central" text-anchor="middle" style="font-size:12px;font-family:sans-serif;" transform="translate(492.4444 214)" fill="#333">18</text>
<text dominant-baseline="central" text-anchor="middle" style="font-size:12px;font-family:sans-serif;" transform="translate(479.1111 178)" fill="#333">33</text>
<path d="M-5 -5l469 0l0 24l-469 0Z" transform="translate(170.52 481)" fill="rgb(0,0,0)" fill-opacity="0" stroke="#ccc" stroke-width="0" class="zr5-cls-1544"></path>
<path d="M3.5 0L21.5 0A3.5 3.5 0 0 1 25 3.5L25 10.5A3.5 3.5 0 0 1 21.5 14L3.5 14A3.5 3.5 0 0 1 0 10.5L0 3.5A3.5 3.5 0 0 1 3.5 0" transform="translate(170.52 481)" fill="#FF3030" ecmeta_series_index="0" ecmeta_data_index="0" ecmeta_ssr_type="legend" ecmeta_silent="true" class="zr5-cls-1544"></path>
<text dominant-baseline="central" text-anchor="start" style="font-size:12px;font-family:sans-serif;" xml:space="preserve" x="30" y="7" transform="translate(170.52 481)" fill="#333">Party 0</text>
<path d="M0 0l68.2 0l0 14l-68.2 0Z" transform="translate(170.52 481)" fill="transparent" ecmeta_series_index="0" ecmeta_data_index="0" ecmeta_ssr_type="legend" class="zr5-cls-1551"></path>
<path d="M3.5 0L21.5 0A3.5 3.5 0 0 1 25 3.5L25 10.5A3.5 3.5 0 0 1 21.5 14L3.5 14A3.5 3.5 0 0 1 0 10.5L0 3.5A3.5 3.5 0 0 1 3.5 0" transform="translate(248.68 481)" fill="#FF9900" ecmeta_series_index="1" ecmeta_data_index="1" ecmeta_ssr_type="legend" ecmeta_silent="true" class="zr5-cls-1544"></path>
<text dominant-baseline="central" text-anchor="start" style="font-size:12px;font-family:sans-serif;" xml:space="preserve" x="30" y="7" transform="translate(248.68 481)" fill="#333">Party 1</text>
<path d="M0 0l68.2 0l0 14l-68.2 0Z" transform="translate(248.68 481)" fill="transparent" ecmeta_series_index="1" ecmeta_data_index="1" ecmeta_ssr_type="legend" class="zr5-cls-1551"></path>
<path d="M3.5 0L21.5 0A3.5 3.5 0 0 1 25 3.5L25 10.5A3.5 3.5 0 0 1 21.5 14L3.5 14A3.5 3.5 0 0 1 0 10.5L0 3.5A3.5 3.5 0 0 1 3.5 0" transform="translate(326.84 481)" fill="#FFFF33" ecmeta_series_index="2" ecmeta_data_index="2" ecmeta_ssr_type="legend" ecmeta_silent="true" class="zr5-cls-1544"></path>
<text dominant-baseline="central" text-anchor="start" style="font-size:12px;font-family:sans-serif;" xml:space="preserve" x="30" y="7" transform="translate(326.84 481)" fill="#333">Party 2</text>
<path d="M0 0l68.2 0l0 14l-68.2 0Z" transform="translate(326.84 481)" fill="transparent" ecmeta_series_index="2" ecmeta_data_index="2" ecmeta_ssr_type="legend" class="zr5-cls-1551"></path>
<path d="M3.5 0L21.5 0A3.5 3.5 0 0 1 25 3.5L25 10.5A3.5 3.5 0 0 1 21.5 14L3.5 14A3.5 3.5 0 0 1 0 10.5L0 3.5A3.5 3.5 0 0 1 3.5 0" transform="translate(405 481)" fill="#33CC33" ecmeta_series_index="3" ecmeta_data_index="3" ecmeta_ssr_type="legend" ecmeta_silent="true" class="zr5-cls-1544"></path>
<text dominant-baseline="central" text-anchor="start" style="font-size:12px;font-family:sans-serif;" xml:space="preserve" x="30" y="7" transform="translate(405 481)" fill="#333">Party 3</text>
<path d="M0 0l68.2 0l0 14l-68.2 0Z" transform="translate(405 481)" fill="transparent" ecmeta_series_index="3" ecmeta_data_index="3" ecmeta_ssr_type="legend" class="zr5-cls-1551"></path>
<path d="M3.5 0L21.5 0A3.5 3.5 0 0 1 25 3.5L25 10.5A3.5 3.5 0 0 1 21.5 14L3.5 14A3.5 3.5 0 0 1 0 10.5L0 3.5A3.5 3.5 0 0 1 3.5 0" transform="translate(483.16 481)" fill="#00CCCC" ecmeta_series_index="4" ecmeta_data_index="4" ecmeta_ssr_type="legend" ecmeta_silent="true" class="zr5-cls-1544"></path>
<text dominant-baseline="central" text-anchor="start" style="font-size:12px;font-family:sans-serif;" xml:space="preserve" x="30" y="7" transform="translate(483.16 481)" fill="#333">Party 4</text>
<path d="M0 0l68.2 0l0 14l-68.2 0Z" transform="translate(483.16 481)" fill="transparent" ecmeta_series_index="4" ecmeta_data_index="4" ecmeta_ssr_type="legend" class="zr5-cls-1551"></path>
<path d="M3.5 0L21.5 0A3.5 3.5 0 0 1 25 3.5L25 10.5A3.5 3.5 0 0 1 21.5 14L3.5 14A3.5 3.5 0 0 1 0 10.5L0 3.5A3.5 3.5 0 0 1 3.5 0" transform="translate(561.32 481)" fill="#3399FF" ecmeta_series_index="5" ecmeta_data_index="5" ecmeta_ssr_type="legend" ecmeta_silent="true" class="zr5-cls-1544"></path>
<text dominant-baseline="central" text-anchor="start" style="font-size:12px;font-family:sans-serif;" xml:space="preserve" x="30" y="7" transform="translate(561.32 481)" fill="#333">Party 5</text>
<path d="M0 0l68.2 0l0 14l-68.2 0Z" transform="translate(561.32 481)" fill="transparent" ecmeta_series_index="5" ecmeta_data_index="5" ecmeta_ssr_type="legend" class="zr5-cls-1551"></path>
<path d="M375.5 340L375.5 160" fill="transparent" stroke="black" stroke-dasharray="4,2" ecmeta_series_index="0" ecmeta_data_index="0" ecmeta_ssr_type="chart" class="zr5-cls-1552"></path>
<path d="M4 0A4 4 0 1 1 4 -0.0004" transform="matrix(-1,0,0,-1,375.1111,340)" fill="black" ecmeta_series_index="0" ecmeta_data_index="0" ecmeta_ssr_type="chart" class="zr5-cls-1553"></path>
<path d="M4 0A4 4 0 1 1 4 -0.4A4 4 0 0 1 4 0" transform="translate(375.1111 160)" fill="black" ecmeta_series_index="0" ecmeta_data_index="0" ecmeta_ssr_type="chart" class="zr5-cls-1553"></path>
<text dominant-baseline="central" text-anchor="middle" style="font-size:12px;font-family:sans-serif;" y="-6" transform="translate(375.1111 155)" fill="#333" stroke="rgb(255,255,255)" stroke-width="2" paint-order="stroke" stroke-miterlimit="2">76</text>
<path d="M-94.4 -5l188.7 0l0 28l-188.7 0Z" transform="translate(400 5)" fill="rgb(0,0,0)" fill-opacity="0" stroke="#ccc" stroke-width="0" class="zr5-cls-1544"></path>
<text dominant-baseline="central" text-anchor="middle" style="font-size:18px;font-family:sans-serif;font-weight:bold;" xml:space="preserve" y="9" transform="translate(400 5)" fill="#464646">Seat Projections (187)</text>
<style ><![CDATA[
.zr5-cls-1544:hover {
pointer-events:none;
}
.zr5-cls-1545:hover {
cursor:pointer;
fill:rgba(255,52,52,1);
}
.zr5-cls-1546:hover {
cursor:pointer;
fill:rgba(255,168,0,1);
}
.zr5-cls-1547:hover {
cursor:pointer;
fill:rgba(255,255,56,1);
}
.zr5-cls-1548:hover {
cursor:pointer;
fill:rgba(56,224,56,1);
}
.zr5-cls-1549:hover {
cursor:pointer;
fill:rgba(0,224,224,1);
}
.zr5-cls-1550:hover {
cursor:pointer;
fill:rgba(56,168,255,1);
}
.zr5-cls-1551:hover {
cursor:pointer;
fill:rgba(0,0,0,0);
}
.zr5-cls-1552:hover {
cursor:pointer;
stroke-width:3;
}
.zr5-cls-1553:hover {
cursor:pointer;
fill:rgba(0,0,0,1);
}

]]>

</style>
</svg>