<svg width="800" height="500" xmlns="http://www.w3.org/2000/svg" xmlns:xlink="http://www.w3.org/1999/xlink" version="1.1" baseProfile="full" viewBox="0 0 800 500">
<rect width="800" height="500" x="0" y="0" fill="#ffffff"></rect>
<path d="M240.5 160L240.5 340" fill="transparent" stroke="#E0E6F1" class="zr0-cls-0"></path>
<path d="M304.5 160L304.5 340" fill="transparent" stroke="#E0E6F1" class="zr0-cls-0"></path>
<path d="M368.5 160L368.5 340" fill="transparent" stroke="#E0E6F1" class="zr0-cls-0"></path>
<path d="M432.5 160L432.5 340" fill="transparent" stroke="#E0E6F1" class="zr0-cls-0"></path>
<path d="M496.5 160L496.5 340" fill="transparent" stroke="#E0E6F1" class="zr0-cls-0"></path>
<path d="M560.5 160L560.5 340" fill="transparent" stroke="#E0E6F1" class="zr0-cls-0"></path>
<path d="M240.5 340L240.5 160" fill="transparent" stroke="#6E7079" stroke-linecap="round" class="zr0-cls-0"></path>
<path d="M240 340.5L235 340.5" fill="transparent" stroke="#6E7079" class="zr0-cls-0"></path>
<path d="M240 295.5L235 295.5" fill="transparent" stroke="#6E7079" class="zr0-cls-0"></path>
<path d="M240 250.5L235 250.5" fill="transparent" stroke="#6E7079" class="zr0-cls-0"></path>
<path d="M240 205.5L235 205.5" fill="transparent" stroke="#6E7079" class="zr0-cls-0"></path>
<path d="M240 160.5L235 160.5" fill="transparent" stroke="#6E7079" class="zr0-cls-0"></path>
<text dominant-baseline="central" text-anchor="end" style="font-size:12px;font-family:sans-serif;" xml:space="preserve" transform="translate(232 317.5)" fill="#6E7079">First Past the Post</text>
<text dominant-baseline="central" text-anchor="end" style="font-size:12px;font-family:sans-serif;" transform="translate(232 272.5)" fill="#6E7079">Anti-Plurality</text>
<text dominant-baseline="central" text-anchor="end" style="font-size:12px;font-family:sans-serif;" xml:space="preserve" transform="translate(232 227.5)" fill="#6E7079">Instant Runoff</text>
<text dominant-baseline="central" text-anchor="end" style="font-size:12px;font-family:sans-serif;" xml:space="preserve" transform="translate(232 182.5)" fill="#6E7079">Ranked Pairs</text>
<text dominant-baseline="central" text-anchor="middle" style="font-size:12px;font-family:sans-serif;" y="6" transform="translate(240 348)" fill="#6E7079">0</text>
<text dominant-baseline="central" text-anchor="middle" style="font-size:12px;font-family:sans-serif;" y="6" transform="translate(304 348)" fill="#6E7079">200</text>
<text dominant-baseline="central" text-anchor="middle" style="font-size:12px;font-family:sans-serif;" y="6" transform="translate(368 348)" fill="#6E7079">400</text>
<text dominant-baseline="central" text-anchor="middle" style="font-size:12px;font-family:sans-serif;" y="6" transform="translate(432 348)" fill="#6E7079">600</text>
<text dominant-baseline="central" text-anchor="middle" style="font-size:12px;font-family:sans-serif;" y="6" transform="translate(496 348)" fill="#6E7079">800</text>
<text dominant-baseline="central" text-anchor="middle" style="font-size:12px;font-family:sans-serif;" y="6" transform="translate(560 348)" fill="#6E7079">1,000</text>
<path d="M240 302l300.8 0l0 31.1l-300.8 0Z" fill="#5470c6" ecmeta_series_index="0" ecmeta_data_index="0" ecmeta_ssr_type="chart" class="zr0-cls-1"></path>
<path d="M240 257l319.4 0l0 31.1l-319.4 0Z" fill="#5470c6" ecmeta_series_index="0" ecmeta_data_index="1" ecmeta_ssr_type="chart" class="zr0-cls-1"></path>
<path d="M240 212l297 0l0 31.1l-297 0Z" fill="#5470c6" ecmeta_series_index="0" ecmeta_data_index="2" ecmeta_ssr_type="chart" class="zr0-cls-1"></path>
<path d="M240 167l110.1 0l0 31.1l-110.1 0Z" fill="#5470c6" ecmeta_series_index="0" ecmeta_data_index="3" ecmeta_ssr_type="chart" class="zr0-cls-1"></path>
<path d="M-175.1 -5l350.2 0l0 28l-350.2 0Z" transform="translate(400 5)" fill="rgb(0,0,0)" fill-opacity="0" stroke="#ccc" stroke-width="0" class="zr0-cls-0"></path>
<text dominant-baseline="central" text-anchor="middle" style="font-size:18px;font-family:sans-serif;font-weight:bold;" xml:space="preserve" y="9" transform="translate(400 5)" fill="#464646"># Different Governments from Proportional</text>
<style ><![CDATA[
.zr0-cls-0:hover {
pointer-events:none;
}
.zr0-cls-1:hover {
cursor:pointer;
fill:rgba(92,123,217,1);
}

]]>

</style>
</svg>