<svg width="800" height="500" xmlns="http://www.w3.org/2000/svg" xmlns:xlink="http://www.w3.org/1999/xlink" version="1.1" baseProfile="full" viewBox="0 0 800 500">
<rect width="800" height="500" x="0" y="0" fill="#ffffff"></rect>
<path d="M240.5 160L240.5 340" fill="transparent" stroke="#E0E6F1" class="zr1-cls-2"></path>
<path d="M293.5 160L293.5 340" fill="transparent" stroke="#E0E6F1" class="zr1-cls-2"></path>
<path d="M346.5 160L346.5 340" fill="transparent" stroke="#E0E6F1" class="zr1-cls-2"></path>
<path d="M400.5 160L400.5 340" fill="transparent" stroke="#E0E6F1" class="zr1-cls-2"></path>
<path d="M453.5 160L453.5 340" fill="transparent" stroke="#E0E6F1" class="zr1-cls-2"></path>
<path d="M506.5 160L506.5 340" fill="transparent" stroke="#E0E6F1" class="zr1-cls-2"></path>
<path d="M560.5 160L560.5 340" fill="transparent" stroke="#E0E6F1" class="zr1-cls-2"></path>
<path d="M240.5 340L240.5 160" fill="transparent" stroke="#6E7079" stroke-linecap="round" class="zr1-cls-2"></path>
<path d="M240 340.5L235 340.5" fill="transparent" stroke="#6E7079" class="zr1-cls-2"></path>
<path d="M240 304.5L235 304.5" fill="transparent" stroke="#6E7079" class="zr1-cls-2"></path>
<path d="M240 268.5L235 268.5" fill="transparent" stroke="#6E7079" class="zr1-cls-2"></path>
<path d="M240 232.5L235 232.5" fill="transparent" stroke="#6E7079" class="zr1-cls-2"></path>
<path d="M240 196.5L235 196.5" fill="transparent" stroke="#6E7079" class="zr1-cls-2"></path>
<path d="M240 160.5L235 160.5" fill="transparent" stroke="#6E7079" class="zr1-cls-2"></path>
<text dominant-baseline="central" text-anchor="end" style="font-size:12px;font-family:sans-serif;" xml:space="preserve" transform="translate(232 322)" fill="#6E7079">First Past the Post</text>
<text dominant-baseline="central" text-anchor="end" style="font-size:12px;font-family:sans-serif;" transform="translate(232 286)" fill="#6E7079">Anti-Plurality</text>
<text dominant-baseline="central" text-anchor="end" style="font-size:12px;font-family:sans-serif;" xml:space="preserve" transform="translate(232 250)" fill="#6E7079">Instant Runoff</text>
<text dominant-baseline="central" text-anchor="end" style="font-size:12px;font-family:sans-serif;" xml:space="preserve" transform="translate(232 214)" fill="#6E7079">Ranked Pairs</text>
<text dominant-baseline="central" text-anchor="end" style="font-size:12px;font-family:sans-serif;" transform="translate(232 178)" fill="#6E7079">Proportional</text>
<text dominant-baseline="central" text-anchor="middle" style="font-size:12px;font-family:sans-serif;" y="6" transform="translate(240 348)" fill="#6E7079">0</text>
<text dominant-baseline="central" text-anchor="middle" style="font-size:12px;font-family:sans-serif;" y="6" transform="translate(293.3333 348)" fill="#6E7079">30</text>
<text dominant-baseline="central" text-anchor="middle" style="font-size:12px;font-family:sans-serif;" y="6" transform="translate(346.6667 348)" fill="#6E7079">60</text>
<text dominant-baseline="central" text-anchor="middle" style="font-size:12px;font-family:sans-serif;" y="6" transform="translate(400 348)" fill="#6E7079">90</text>
<text dominant-baseline="central" text-anchor="middle" style="font-size:12px;font-family:sans-serif;" y="6" transform="translate(453.3333 348)" fill="#6E7079">120</text>
<text dominant-baseline="central" text-anchor="middle" style="font-size:12px;font-family:sans-serif;" y="6" transform="translate(506.6667 348)" fill="#6E7079">150</text>
<text dominant-baseline="central" text-anchor="middle" style="font-size:12px;font-family:sans-serif;" y="6" transform="translate(560 348)" fill="#6E7079">180</text>
<path d="M240 307.6l65.8 0l0 28.8l-65.8 0Z" fill="#FF3030" ecmeta_series_index="0" ecmeta_data_index="0" ecmeta_ssr_type="chart" class="zr1-cls-3"></path>
<path d="M240 271.6l16 0l0 28.8l-16 0Z" fill="#FF3030" ecmeta_series_index="0" ecmeta_data_index="1" ecmeta_ssr_type="chart" class="zr1-cls-3"></path>
<path d="M240 235.6l53.3 0l0 28.8l-53.3 0Z" fill="#FF3030" ecmeta_series_index="0" ecmeta_data_index="2" ecmeta_ssr_type="chart" class="zr1-cls-3"></path>
<path d="M240 199.6l40.9 0l0 28.8l-40.9 0Z" fill="#FF3030" ecmeta_series_index="0" ecmeta_data_index="3" ecmeta_ssr_type="chart" class="zr1-cls-3"></path>
<path d="M240 163.6l60.4 0l0 28.8l-60.4 0Z" fill="#FF3030" ecmeta_series_index="0" ecmeta_data_index="4" ecmeta_ssr_type="chart" class="zr1-cls-3"></path>
<path d="M305.8 307.6l0 0l0 28.8l0 0Z" fill="#FF9900" ecmeta_series_index="1" ecmeta_data_index="0" ecmeta_ssr_type="chart" class="zr1-cls-4"></path>
<path d="M256 271.6l252.4 0l0 28.8l-252.4 0Z" fill="#FF9900" ecmeta_series_index="1" ecmeta_data_index="1" ecmeta_ssr_type="chart" class="zr1-cls-4"></path>
<path d="M293.3 235.6l0 0l0 28.8l0 0Z" fill="#FF9900" ecmeta_series_index="1" ecmeta_data_index="2" ecmeta_ssr_type="chart" class="zr1-cls-4"></path>
<path d="M280.9 199.6l19.6 0l0 28.8l-19.6 0Z" fill="#FF9900" ecmeta_series_index="1" ecmeta_data_index="3" ecmeta_ssr_type="chart" class="zr1-cls-4"></path>
<path d="M300.4 163.6l21.3 0l0 28.8l-21.3 0Z" fill="#FF9900" ecmeta_series_index="1" ecmeta_data_index="4" ecmeta_ssr_type="chart" class="zr1-cls-4"></path>
<path d="M306.3 308.1l167.9 0l0 27.8l-167.9 0Z" fill="#FFFF33" stroke="#000000" ecmeta_series_index="2" ecmeta_data_index="0" ecmeta_ssr_type="chart" class="zr1-cls-5"></path>
<path d="M508.4 271.6l0 0l0 28.8l0 0Z" fill="#FFFF33" stroke="#000000" ecmeta_series_index="2" ecmeta_data_index="1" ecmeta_ssr_type="chart" class="zr1-cls-5"></path>
<path d="M293.8 236.1l173.2 0l0 27.8l-173.2 0Z" fill="#FFFF33" stroke="#FF0000" ecmeta_series_index="2" ecmeta_data_index="2" ecmeta_ssr_type="chart" class="zr1-cls-5"></path>
<path d="M300.9 200.1l166.1 0l0 27.8l-166.1 0Z" fill="#FFFF33" stroke="#000000" ecmeta_series_index="2" ecmeta_data_index="3" ecmeta_ssr_type="chart" class="zr1-cls-5"></path>
<path d="M322.3 164.1l89.7 0l0 27.8l-89.7 0Z" fill="#FFFF33" stroke="#000000" ecmeta_series_index="2" ecmeta_data_index="4" ecmeta_ssr_type="chart" class="zr1-cls-5"></path>
<path d="M474.7 307.6l0 0l0 28.8l0 0Z" fill="#33CC33" ecmeta_series_index="3" ecmeta_data_index="0" ecmeta_ssr_type="chart" class="zr1-cls-6"></path>
<path d="M508.4 271.6l0 0l0 28.8l0 0Z" fill="#33CC33" ecmeta_series_index="3" ecmeta_data_index="1" ecmeta_ssr_type="chart" class="zr1-cls-6"></path>
<path d="M467.6 235.6l0 0l0 28.8l0 0Z" fill="#33CC33" ecmeta_series_index="3" ecmeta_data_index="2" ecmeta_ssr_type="chart" class="zr1-cls-6"></path>
<path d="M467.6 199.6l0 0l0 28.8l0 0Z" fill="#33CC33" ecmeta_series_index="3" ecmeta_data_index="3" ecmeta_ssr_type="chart" class="zr1-cls-6"></path>
<path d="M412.4 163.6l30.2 0l0 28.8l-30.2 0Z" fill="#33CC33" ecmeta_series_index="3" ecmeta_data_index="4" ecmeta_ssr_type="chart" class="zr1-cls-6"></path>
<path d="M474.7 307.6l33.8 0l0 28.8l-33.8 0Z" fill="#00CCCC" ecmeta_series_index="4" ecmeta_data_index="0" ecmeta_ssr_type="chart" class="zr1-cls-7"></path>
<path d="M508.4 271.6l0 0l0 28.8l0 0Z" fill="#00CCCC" ecmeta_series_index="4" ecmeta_data_index="1" ecmeta_ssr_type="chart" class="zr1-cls-7"></path>
<path d="M467.6 235.6l40.9 0l0 28.8l-40.9 0Z" fill="#00CCCC" ecmeta_series_index="4" ecmeta_data_index="2" ecmeta_ssr_type="chart" class="zr1-cls-7"></path>
<path d="M467.6 199.6l40.9 0l0 28.8l-40.9 0Z" fill="#00CCCC" ecmeta_series_index="4" ecmeta_data_index="3" ecmeta_ssr_type="chart" class="zr1-cls-7"></path>
<path d="M442.7 163.6l44.4 0l0 28.8l-44.4 0Z" fill="#00CCCC" ecmeta_series_index="4" ecmeta_data_index="4" ecmeta_ssr_type="chart" class="zr1-cls-7"></path>
<path d="M508.4 307.6l0 0l0 28.8l0 0Z" fill="#3399FF" ecmeta_series_index="5" ecmeta_data_index="0" ecmeta_ssr_type="chart" class="zr1-cls-8"></path>
<path d="M508.4 271.6l0 0l0 28.8l0 0Z" fill="#3399FF" ecmeta_series_index="5" ecmeta_data_index="1" ecmeta_ssr_type="chart" class="zr1-cls-8"></path>
<path d="M508.4 235.6l0 0l0 28.8l0 0Z" fill="#3399FF" ecmeta_series_index="5" ecmeta_data_index="2" ecmeta_ssr_type="chart" class="zr1-cls-8"></path>
<path d="M508.4 199.6l0 0l0 28.8l0 0Z" fill="#3399FF" ecmeta_series_index="5" ecmeta_data_index="3" ecmeta_ssr_type="chart" class="zr1-cls-8"></path>
<path d="M487.1 163.6l21.3 0l0 28.8l-21.3 0Z" fill="#3399FF" ecmeta_series_index="5" ecmeta_data_index="4" ecmeta_ssr_type="chart" class="zr1-cls-8"></path>
<text dominant-baseline="central" text-anchor="middle" style="font-size:12px;font-family:sans-serif;" transform="translate(272.8889 322)" fill="#eee" stroke="#FF3030" stroke-width="2" paint-order="stroke" stroke-miterlimit="2">37</text>
<text dominant-baseline="central" text-anchor="middle" style="font-size:12px;font-family:sans-serif;" transform="translate(248 286)" fill="#eee" stroke="#FF3030" stroke-width="2" paint-order="stroke" stroke-miterlimit="2">9</text>
<text dominant-baseline="central" text-anchor="middle" style="font-size:12px;font-family:sans-serif;" transform="translate(266.6667 250)" fill="#eee" stroke="#FF3030" stroke-width="2" paint-order="stroke" stroke-miterlimit="2">30</text>
<text dominant-baseline="central" text-anchor="middle" style="font-size:12px;font-family:sans-serif;" transform="translate(260.4444 214)" fill="#eee" stroke="#FF3030" stroke-width="2" paint-order="stroke" stroke-miterlimit="2">23</text>
<text dominant-baseline="central" text-anchor="middle" style="font-size:12px;font-family:sans-serif;" transform="translate(270.2222 178)" fill="#eee" stroke="#FF3030" stroke-width="2" paint-order="stroke" stroke-miterlimit="2">34</text>
<text dominant-baseline="central" text-anchor="middle" style="font-size:12px;font-family:sans-serif;" transform="translate(305.7778 322)" fill="#333">0</text>
<text dominant-baseline="central" text-anchor="middle" style="font-size:12px;font-family:sans-serif;" transform="translate(382.2222 286)" fill="#333">142</text>
<text dominant-baseline="central" text-anchor="middle" style="font-size:12px;font-family:sans-serif;" transform="translate(293.3333 250)" fill="#333">0</text>
<text dominant-baseline="central" text-anchor="middle" style="font-size:12px;font-family:sans-serif;" transform="translate(290.6667 214)" fill="#333">11</text>
<text dominant-baseline="central" text-anchor="middle" style="font-size:12px;font-family:sans-serif;" transform="translate(311.1111 178)" fill="#333">12</text>
<text dominant-baseline="central" text-anchor="middle" style="font-size:12px;font-family:sans-serif;" transform="translate(390.2222 322)" fill="#333">95</text>
<text dominant-baseline="central" text-anchor="middle" style="font-size:12px;font-family:sans-serif;" transform="translate(508.4444 286)" fill="#333">0</text>
<text dominant-baseline="central" text-anchor="middle" style="font-size:12px;font-family:sans-serif;" transform="translate(380.4444 250)" fill="#333">98</text>
<text dominant-baseline="central" text-anchor="middle" style="font-size:12px;font-family:sans-serif;" transform="translate(384 214)" fill="#333">94</text>
<text dominant-baseline="central" text-anchor="middle" style="font-size:12px;font-family:sans-serif;" transform="translate(367.1111 178)" fill="#333">51</text>
<text dominant-baseline="central" text-anchor="middle" style="font-size:12px;font-family:sans-serif;" transform="translate(474.6667 322)" fill="#333">0</text>
<text dominant-baseline="central" text-anchor="middle" style="font-size:12px;font-family:sans-serif;" transform="translate(508.4444 286)" fill="#333">0</text>
<text dominant-baseline="central" text-anchor="middle" style="font-size:12px;font-family:sans-serif;" transform="translate(467.5556 250)" fill="#333">0</text>
<text dominant-baseline="central" text-anchor="middle" style="font-size:12px;font-family:sans-serif;" transform="translate(467.5556 214)" fill="#333">0</text>
<text dominant-baseline="central" text-anchor="middle" style="font-size:12px;font-family:sans-serif;" transform="translate(427.5556 178)" fill="#333">17</text>
<text dominant-baseline="central" text-anchor="middle" style="font-size:12px;font-family:sans-serif;" transform="translate(491.5556 322)" fill="#333">19</text>
<text dominant-baseline="central" text-anchor="middle" style="font-size:12px;font-family:sans-serif;" transform="translate(508.4444 286)" fill="#333">0</text>
<text dominant-baseline="central" text-anchor="middle" style="font-size:12px;font-family:sans-serif;" transform="translate(488 250)" fill="#333">23</text>
<text dominant-baseline="central" text-anchor="middle" style="font-size:12px;font-family:sans-serif;" transform="translate(488 214)" fill="#333">23</text>
<text dominant-baseline="central" text-anchor="middle" style="font-size:12px;font-family:sans-serif;" transform="translate(464.8889 178)" fill="#333">25</text>
<text dominant-baseline="central" text-anchor="middle" style="font-size:12px;font-family:sans-serif;" transform="translate(508.4444 322)" fill="#333">0</text>
<text dominant-baseline="central" text-anchor="middle" style="font-size:12px;font-family:sans-serif;" transform="translate(508.4444 286)" fill="#333">0</text>
<text dominant-baseline="central" text-anchor="middle" style="font-size:12px;font-family:sans-serif;" transform="translate(508.4444 250)" fill="#333">0</text>
<text dominant-baseline="central" text-anchor="middle" style="font-size:12px;font-family:sans-serif;" transform="translate(508.4444 214)" fill="#333">0</text>
<text dominant-baseline="central" text-anchor="middle" style="font-size:12px;font-family:sans-serif;" transform="translate(497.7778 178)" fill="#333">12</text>
<path d="M-5 -5l469 0l0 24l-469 0Z" transform="translate(170.52 481)" fill="rgb(0,0,0)" fill-opacity="0" stroke="#ccc" stroke-width="0" class="zr1-cls-2"></path>
<path d="M3.5 0L21.5 0A3.5 3.5 0 0 1 25 3.5L25 10.5A3.5 3.5 0 0 1 21.5 14L3.5 14A3.5 3.5 0 0 1 0 10.5L0 3.5A3.5 3.5 0 0 1 3.5 0" transform="translate(170.52 481)" fill="#FF3030" ecmeta_series_index="0" ecmeta_data_index="0" ecmeta_ssr_type="legend" ecmeta_silent="true" class="zr1-cls-2"></path>
<text dominant-baseline="central" text-anchor="start" style="font-size:12px;font-family:sans-serif;" xml:space="preserve" x="30" y="7" transform="translate(170.52 481)" fill="#333">Party 0</text>
<path d="M0 0l68.2 0l0 14l-68.2 0Z" transform="translate(170.52 481)" fill="transparent" ecmeta_series_index="0" ecmeta_data_index="0" ecmeta_ssr_type="legend" class="zr1-cls-9"></path>
<path d="M3.5 0L21.5 0A3.5 3.5 0 0 1 25 3.5L25 10.5A3.5 3.5 0 0 1 21.5 14L3.5 14A3.5 3.5 0 0 1 0 10.5L0 3.5A3.5 3.5 0 0 1 3.5 0" transform="translate(248.68 481)" fill="#FF9900" ecmeta_series_index="1" ecmeta_data_index="1" ecmeta_ssr_type="legend" ecmeta_silent="true" class="zr1-cls-2"></path>
<text dominant-baseline="central" text-anchor="start" style="font-size:12px;font-family:sans-serif;" xml:space="preserve" x="30" y="7" transform="translate(248.68 481)" fill="#333">Party 1</text>
<path d="M0 0l68.2 0l0 14l-68.2 0Z" transform="translate(248.68 481)" fill="transparent" ecmeta_series_index="1" ecmeta_data_index="1" ecmeta_ssr_type="legend" class="zr1-cls-9"></path>
<path d="M3.5 0L21.5 0A3.5 3.5 0 0 1 25 3.5L25 10.5A3.5 3.5 0 0 1 21.5 14L3.5 14A3.5 3.5 0 0 1 0 10.5L0 3.5A3.5 3.5 0 0 1 3.5 0" transform="translate(326.84 481)" fill="#FFFF33" ecmeta_series_index="2" ecmeta_data_index="2" ecmeta_ssr_type="legend" ecmeta_silent="true" class="zr1-cls-2"></path>
<text dominant-baseline="central" text-anchor="start" style="font-size:12px;font-family:sans-serif;" xml:space="preserve" x="30" y="7" transform="translate(326.84 481)" fill="#333">Party 2</text>
<path d="M0 0l68.2 0l0 14l-68.2 0Z" transform="translate(326.84 481)" fill="transparent" ecmeta_series_index="2" ecmeta_data_index="2" ecmeta_ssr_type="legend" class="zr1-cls-9"></path>
<path d="M3.5 0L21.5 0A3.5 3.5 0 0 1 25 3.5L25 10.5A3.5 3.5 0 0 1 21.5 14L3.5 14A3.5 3.5 0 0 1 0 10.5L0 3.5A3.5 3.5 0 0 1 3.5 0" transform="translate(405 481)" fill="#33CC33" ecmeta_series_index="3" ecmeta_data_index="3" ecmeta_ssr_type="legend" ecmeta_silent="true" class="zr1-cls-2"></path>
<text dominant-baseline="central" text-anchor="start" style="font-size:12px;font-family:sans-serif;" xml:space="preserve" x="30" y="7" transform="translate(405 481)" fill="#333">Party 3</text>
<path d="M0 0l68.2 0l0 14l-68.2 0Z" transform="translate(405 481)" fill="transparent" ecmeta_series_index="3" ecmeta_data_index="3" ecmeta_ssr_type="legend" class="zr1-cls-9"></path>
<path d="M3.5 0L21.5 0A3.5 3.5 0 0 1 25 3.5L25 10.5A3.5 3.5 0 0 1 21.5 14L3.5 14A3.5 3.5 0 0 1 0 10.5L0 3.5A3.5 3.5 0 0 1 3.5 0" transform="translate(483.16 481)" fill="#00CCCC" ecmeta_series_index="4" ecmeta_data_index="4" ecmeta_ssr_type="legend" ecmeta_silent="true" class="zr1-cls-2"></path>
<text dominant-baseline="central" text-anchor="start" style="font-size:12px;font-family:sans-serif;" xml:space="preserve" x="30" y="7" transform="translate(483.16 481)" fill="#333">Party 4</text>
<path d="M0 0l68.2 0l0 14l-68.2 0Z" transform="translate(483.16 481)" fill="transparent" ecmeta_series_index="4" ecmeta_data_index="4" ecmeta_ssr_type="legend" class="zr1-cls-9"></path>
<path d="M3.5 0L21.5 0A3.5 3.5 0 0 1 25 3.5L25 10.5A3.5 3.5 0 0 1 21.5 14L3.5 14A3.5 3.5 0 0 1 0 10.5L0 3.5A3.5 3.5 0 0 1 3.5 0" transform="translate(561.32 481)" fill="#3399FF" ecmeta_series_index="5" ecmeta_data_index="5" ecmeta_ssr_type="legend" ecmeta_silent="true" class="zr1-cls-2"></path>
<text dominant-baseline="central" text-anchor="start" style="font-size:12px;font-family:sans-serif;" xml:space="preserve" x="30" y="7" transform="translate(561.32 481)" fill="#333">Party 5</text>
<path d="M0 0l68.2 0l0 14l-68.2 0Z" transform="translate(561.32 481)" fill="transparent" ecmeta_series_index="5" ecmeta_data_index="5" ecmeta_ssr_type="legend" class="zr1-cls-9"></path>
<path d="M375.5 340L375.5 160" fill="transparent" stroke="black" stroke-dasharray="4,2" ecmeta_series_index="0" ecmeta_data_index="0" ecmeta_ssr_type="chart" class="zr1-cls-10"></path>
<path d="M4 0A4 4 0 1 1 4 -0.0004" transform="matrix(-1,0,0,-1,375.1111,340)" fill="black" ecmeta_series_index="0" ecmeta_data_index="0" ecmeta_ssr_type="chart" class="zr1-cls-11"></path>
<path d="M4 0A4 4 0 1 1 4 -0.4A4 4 0 0 1 4 0" transform="translate(375.1111 160)" fill="black" ecmeta_series_index="0" ecmeta_data_index="0" ecmeta_ssr_type="chart" class="zr1-cls-11"></path>
<text dominant-baseline="central" text-anchor="middle" style="font-size:12px;font-family:sans-serif;" y="-6" transform="translate(375.1111 155)" fill="#333" stroke="rgb(255,255,255)" stroke-width="2" paint-order="stroke" stroke-miterlimit="2">76</text>
<path d="M-94.4 -5l188.7 0l0 28l-188.7 0Z" transform="translate(400 5)" fill="rgb(0,0,0)" fill-opacity="0" stroke="#ccc" stroke-width="0" class="zr1-cls-2"></path>
<text dominant-baseline="central" text-anchor="middle" style="font-size:18px;font-family:sans-serif;font-weight:bold;" xml:space="preserve" y="9" transform="translate(400 5)" fill="#464646">Seat Projections (140)</text>
<style ><![CDATA[
.zr1-cls-2:hover {
pointer-events:none;
}
.zr1-cls-3:hover {
cursor:pointer;
fill:rgba(255,52,52,1);
}
.zr1-cls-4:hover {
cursor:pointer;
fill:rgba(255,168,0,1);
}
.zr1-cls-5:hover {
cursor:pointer;
fill:rgba(255,255,56,1);
}
.zr1-cls-6:hover {
cursor:pointer;
fill:rgba(56,224,56,1);
}
.zr1-cls-7:hover {
cursor:pointer;
fill:rgba(0,224,224,1);
}
.zr1-cls-8:hover {
cursor:pointer;
fill:rgba(56,168,255,1);
}
.zr1-cls-9:hover {
cursor:pointer;
fill:rgba(0,0,0,0);
}
.zr1-cls-10:hover {
cursor:pointer;
stroke-width:3;
}
.zr1-cls-11:hover {
cursor:pointer;
fill:rgba(0,0,0,1);
}

]]>

</style>
</svg>