<svg width="800" height="500" xmlns="http://www.w3.org/2000/svg" xmlns:xlink="http://www.w3.org/1999/xlink" version="1.1" baseProfile="full" viewBox="0 0 800 500">
<rect width="800" height="500" x="0" y="0" fill="#ffffff"></rect>
<path d="M240.5 160L240.5 340" fill="transparent" stroke="#E0E6F1" class="zr0-cls-0"></path>
<path d="M304.5 160L304.5 340" fill="transparent" stroke="#E0E6F1" class="zr0-cls-0"></path>
<path d="M368.5 160L368.5 340" fill="transparent" stroke="#E0E6F1" class="zr0-cls-0"></path>
<path d="M432.5 160L432.5 340" fill="transparent" stroke="#E0E6F1" class="zr0-cls-0"></path>
<path d="M496.5 160L496.5 340" fill="transparent" stroke="#E0E6F1" class="zr0-cls-0"></path>
<path d="M560.5 160L560.5 340" fill="transparent" stroke="#E0E6F1" class="zr0-cls-0"></path>
<path d="M240.5 340L240.5 160" fill="transparent" stroke="#6E7079" stroke-linecap="round" class="zr0-cls-0"></path>
<path d="M240 340.5L235 340.5" fill="transparent" stroke="#6E7079" class="zr0-cls-0"></path>
<path d="M240 295.5L235 295.5" fill="transparent" stroke="#6E7079" class="zr0-cls-0"></path>
<path d="M240 250.5L235 250.5" fill="transparent" stroke="#6E7079" class="zr0-cls-0"></path>
<path d="M240 205.5L235 205.5" fill="transparent" stroke="#6E7079" class="zr0-cls-0"></path>
<path d="M240 160.5L235 160.5" fill="transparent" stroke="#6E7079" class="zr0-cls-0"></path>
<text dominant-baseline="central" text-anchor="end" style="font-size:12px;font-family:sans-serif;" xml:space="preserve" transform="translate(232 317.5)" fill="#6E7079">First Past the Post</text>
<text dominant-baseline="central" text-anchor="end" style="font-size:12px;font-family:sans-serif;" transform="translate(232 272.5)" fill="#6E7079">Anti-Plurality</text>
<text dominant-baseline="central" text-anchor="end" style="font-size:12px;font-family:sans-serif;" xml:space="preserve" transform="translate(232 227.5)" fill="#6E7079">Instant Runoff</text>
<text dominant-baseline="central" text-anchor="end" style="font-size:12px;font-family:sans-serif;" xml:space="preserve" transform="translate(232 182.5)" fill="#6E7079">Ranked Pairs</text>
<text dominant-baseline="central" text-anchor="middle" style="font-size:12px;font-family:sans-serif;" y="6" transform="translate(240 348)" fill="#6E7079">0</text>
<text dominant-baseline="central" text-anchor="middle" style="font-size:12px;font-family:sans-serif;" y="6" transform="translate(304 348)" fill="#6E7079">0.03</text>
<text dominant-baseline="central" text-anchor="middle" style="font-size:12px;font-family:sans-serif;" y="6" transform="translate(368 348)" fill="#6E7079">0.06</text>
<text dominant-baseline="central" text-anchor="middle" style="font-size:12px;font-family:sans-serif;" y="6" transform="translate(432 348)" fill="#6E7079">0.09</text>
<text dominant-baseline="central" text-anchor="middle" style="font-size:12px;font-family:sans-serif;" y="6" transform="translate(496 348)" fill="#6E7079">0.12</text>
<text dominant-baseline="central" text-anchor="middle" style="font-size:12px;font-family:sans-serif;" y="6" transform="translate(560 348)" fill="#6E7079">0.15</text>
<path d="M240 301.1l276.9 0l0 14.9l-276.9 0Z" fill="#5470c6" ecmeta_series_index="0" ecmeta_data_index="0" ecmeta_ssr_type="chart" class="zr0-cls-1"></path>
<path d="M240 256.1l281.3 0l0 14.9l-281.3 0Z" fill="#5470c6" ecmeta_series_index="0" ecmeta_data_index="1" ecmeta_ssr_type="chart" class="zr0-cls-1"></path>
<path d="M240 211.1l120.5 0l0 14.9l-120.5 0Z" fill="#5470c6" ecmeta_series_index="0" ecmeta_data_index="2" ecmeta_ssr_type="chart" class="zr0-cls-1"></path>
<path d="M240 166.1l4.9 0l0 14.9l-4.9 0Z" fill="#5470c6" ecmeta_series_index="0" ecmeta_data_index="3" ecmeta_ssr_type="chart" class="zr0-cls-1"></path>
<path d="M240 319l276.8 0l0 14.9l-276.8 0Z" fill="#91cc75" ecmeta_series_index="1" ecmeta_data_index="0" ecmeta_ssr_type="chart" class="zr0-cls-2"></path>
<path d="M240 274l281.2 0l0 14.9l-281.2 0Z" fill="#91cc75" ecmeta_series_index="1" ecmeta_data_index="1" ecmeta_ssr_type="chart" class="zr0-cls-2"></path>
<path d="M240 229l119.3 0l0 14.9l-119.3 0Z" fill="#91cc75" ecmeta_series_index="1" ecmeta_data_index="2" ecmeta_ssr_type="chart" class="zr0-cls-2"></path>
<path d="M240 184l0 0l0 14.9l0 0Z" fill="#91cc75" ecmeta_series_index="1" ecmeta_data_index="3" ecmeta_ssr_type="chart" class="zr0-cls-2"></path>
<path d="M-5 -5l249.3 0l0 24l-249.3 0Z" transform="translate(280.34 481)" fill="rgb(0,0,0)" fill-opacity="0" stroke="#ccc" stroke-width="0" class="zr0-cls-0"></path>
<path d="M3.5 0L21.5 0A3.5 3.5 0 0 1 25 3.5L25 10.5A3.5 3.5 0 0 1 21.5 14L3.5 14A3.5 3.5 0 0 1 0 10.5L0 3.5A3.5 3.5 0 0 1 3.5 0" transform="translate(280.34 481)" fill="#5470c6" ecmeta_series_index="0" ecmeta_data_index="0" ecmeta_ssr_type="legend" ecmeta_silent="true" class="zr0-cls-0"></path>
<text dominant-baseline="central" text-anchor="start" style="font-size:12px;font-family:sans-serif;" xml:space="preserve" x="30" y="7" transform="translate(280.34 481)" fill="#333">Average voter</text>
<path d="M0 0l105 0l0 14l-105 0Z" transform="translate(280.34 481)" fill="transparent" ecmeta_series_index="0" ecmeta_data_index="0" ecmeta_ssr_type="legend" class="zr0-cls-3"></path>
<path d="M3.5 0L21.5 0A3.5 3.5 0 0 1 25 3.5L25 10.5A3.5 3.5 0 0 1 21.5 14L3.5 14A3.5 3.5 0 0 1 0 10.5L0 3.5A3.5 3.5 0 0 1 3.5 0" transform="translate(395.34 481)" fill="#91cc75" ecmeta_series_index="1" ecmeta_data_index="1" ecmeta_ssr_type="legend" ecmeta_silent="true" class="zr0-cls-0"></path>
<text dominant-baseline="central" text-anchor="start" style="font-size:12px;font-family:sans-serif;" xml:space="preserve" x="30" y="7" transform="translate(395.34 481)" fill="#333">Condorcet winner</text>
<path d="M0 0l124.3 0l0 14l-124.3 0Z" transform="translate(395.34 481)" fill="transparent" ecmeta_series_index="1" ecmeta_data_index="1" ecmeta_ssr_type="legend" class="zr0-cls-3"></path>
<path d="M-80.8 -5l161.6 0l0 50l-161.6 0Z" transform="translate(400 5)" fill="rgb(0,0,0)" fill-opacity="0" stroke="#ccc" stroke-width="0" class="zr0-cls-0"></path>
<text dominant-baseline="central" text-anchor="middle" style="font-size:18px;font-family:sans-serif;font-weight:bold;" xml:space="preserve" y="9" transform="translate(400 5)" fill="#464646">Average Distances</text>
<text dominant-baseline="central" text-anchor="middle" style="font-size:12px;font-family:sans-serif;" xml:space="preserve" y="34" transform="translate(400 5)" fill="#6E7079">to certain points</text>
<style ><![CDATA[
.zr0-cls-0:hover {
pointer-events:none;
}
.zr0-cls-1:hover {
cursor:pointer;
fill:rgba(92,123,217,1);
}
.zr0-cls-2:hover {
cursor:pointer;
fill:rgba(159,224,128,1);
}
.zr0-cls-3:hover {
cursor:pointer;
fill:rgba(0,0,0,0);
}

]]>

</style>
</svg>